<?xml version="1.0" encoding="UTF-8" standalone="no"?>
<svg
   xmlns:dc="http://purl.org/dc/elements/1.1/"
   xmlns:cc="http://creativecommons.org/ns#"
   xmlns:rdf="http://www.w3.org/1999/02/22-rdf-syntax-ns#"
   xmlns:svg="http://www.w3.org/2000/svg"
   xmlns="http://www.w3.org/2000/svg"
   xmlns:sodipodi="http://sodipodi.sourceforge.net/DTD/sodipodi-0.dtd"
   xmlns:inkscape="http://www.inkscape.org/namespaces/inkscape"
   height="22px"
   version="1.1"
   viewBox="0 0 18 22"
   width="18px"
   id="svg2"
   inkscape:version="0.91 r13725"
   sodipodi:docname="clipboard.svg">
  <metadata
     id="metadata16">
    <rdf:RDF>
      <cc:Work
         rdf:about="">
        <dc:format>image/svg+xml</dc:format>
        <dc:type
           rdf:resource="http://purl.org/dc/dcmitype/StillImage" />
      </cc:Work>
    </rdf:RDF>
  </metadata>
  <sodipodi:namedview
     pagecolor="#ffffff"
     bordercolor="#666666"
     borderopacity="1"
     objecttolerance="10"
     gridtolerance="10"
     guidetolerance="10"
     inkscape:pageopacity="0"
     inkscape:pageshadow="2"
     inkscape:window-width="779"
     inkscape:window-height="705"
     id="namedview14"
     showgrid="false"
     inkscape:zoom="10.74"
     inkscape:cx="9"
     inkscape:cy="11"
     inkscape:window-x="221"
     inkscape:window-y="222"
     inkscape:window-maximized="0"
     inkscape:current-layer="svg2" />
  <title
     id="title4" />
  <desc
     id="desc6" />
  <defs
     id="defs8" />
  <g
     fill="none"
     fill-rule="evenodd"
     id="Page-1"
     stroke="none"
     stroke-width="1">
    <g
       fill="#000000"
       id="Core"
       transform="translate(-171.000000, -127.000000)">
      <g
         id="content-paste"
         transform="translate(171.000000, 127.000000)">
        <path
           d="M16,2 L11.8,2 C11.4,0.8 10.3,0 9,0 C7.7,0 6.6,0.8 6.2,2 L2,2 C0.9,2 0,2.9 0,4 L0,20 C0,21.1 0.9,22 2,22 L16,22 C17.1,22 18,21.1 18,20 L18,4 C18,2.9 17.1,2 16,2 L16,2 Z M9,2 C9.6,2 10,2.4 10,3 C10,3.6 9.6,4 9,4 C8.4,4 8,3.6 8,3 C8,2.4 8.4,2 9,2 L9,2 Z M16,20 L2,20 L2,4 L4,4 L4,7 L14,7 L14,4 L16,4 L16,20 L16,20 Z"
           id="Shape" />
      </g>
    </g>
  </g>
  <path
     style="fill:#000000;fill-rule:evenodd;stroke:#000000;stroke-width:0.79605836px;stroke-linecap:butt;stroke-linejoin:miter;stroke-opacity:1"
     d="m 4.3980292,10.608327 9.2039408,0 0,0.993644 -9.2039408,0 z"
     id="path3344"
     inkscape:connector-curvature="0"
     sodipodi:nodetypes="ccccc" />
  <path
     style="fill:#000000;fill-rule:evenodd;stroke:#000000;stroke-width:0.79605836px;stroke-linecap:butt;stroke-linejoin:miter;stroke-opacity:1"
     d="m 4.3980292,14.608327 9.2039408,0 0,0.993644 -9.2039408,0 z"
     id="path3344-0"
     inkscape:connector-curvature="0"
     sodipodi:nodetypes="ccccc" />
</svg>
