<?xml version="1.0" encoding="UTF-8" standalone="no"?>
<!-- Generator: Adobe Illustrator 16.0.4, SVG Export Plug-In . SVG Version: 6.00 Build 0)  -->

<svg
   version="1.1"
   id="Layer_1"
   x="0px"
   y="0px"
   width="42px"
   height="42px"
   viewBox="-0.5 0.5 42 42"
   xml:space="preserve"
   sodipodi:docname="delete-ft.svg"
   inkscape:version="1.2.1 (9c6d41e, 2022-07-14)"
   xmlns:inkscape="http://www.inkscape.org/namespaces/inkscape"
   xmlns:sodipodi="http://sodipodi.sourceforge.net/DTD/sodipodi-0.dtd"
   xmlns="http://www.w3.org/2000/svg"
   xmlns:svg="http://www.w3.org/2000/svg"><defs
   id="defs4945" /><sodipodi:namedview
   id="namedview4943"
   pagecolor="#ffffff"
   bordercolor="#000000"
   borderopacity="0.25"
   inkscape:showpageshadow="2"
   inkscape:pageopacity="0.0"
   inkscape:pagecheckerboard="0"
   inkscape:deskcolor="#d1d1d1"
   showgrid="false"
   inkscape:zoom="5.6190476"
   inkscape:cx="21"
   inkscape:cy="21.622881"
   inkscape:window-width="1309"
   inkscape:window-height="827"
   inkscape:window-x="66"
   inkscape:window-y="38"
   inkscape:window-maximized="0"
   inkscape:current-layer="Layer_1" />
<path
   d="M12.5,16.5v17h3v-17H12.5z M18.5,16.5v17h3v-17H18.5z M24.5,16.5v17h3v-17H24.5z M27.5,4.5c0-2.5-0.609-3-3-3h-10  c-2.52,0-2.98,0.55-2.98,3.01L11.5,7.5h-8c-1.48,0-2,0.49-2,2v1c0,1.55,0.52,2,2,2h1v26c0,2.49,0.55,3,3,3h24c2.5,0,4-0.471,4-3v-26  h1c1.51,0,2-0.48,2-2v-1c0-1.48-0.43-2-2-2h-9V4.5z M24.5,4.5v3h-10v-3H24.5z M9.5,12.5h21v24h-21V12.5z"
   id="path4940"
   style="stroke:none;stroke-opacity:1;fill:#ffffff;fill-opacity:1" />
</svg>
