<?xml version="1.0" encoding="UTF-8" standalone="no"?>
<!-- Generator: Adobe Illustrator 16.0.4, SVG Export Plug-In . SVG Version: 6.00 Build 0)  -->

<svg
   xmlns:dc="http://purl.org/dc/elements/1.1/"
   xmlns:cc="http://creativecommons.org/ns#"
   xmlns:rdf="http://www.w3.org/1999/02/22-rdf-syntax-ns#"
   xmlns:svg="http://www.w3.org/2000/svg"
   xmlns="http://www.w3.org/2000/svg"
   xmlns:sodipodi="http://sodipodi.sourceforge.net/DTD/sodipodi-0.dtd"
   xmlns:inkscape="http://www.inkscape.org/namespaces/inkscape"
   version="1.1"
   id="Layer_1"
   x="0px"
   y="0px"
   width="42px"
   height="42px"
   viewBox="-0.5 0.5 42 42"
   xml:space="preserve"
   sodipodi:docname="file.svg"
   inkscape:version="0.92.2 5c3e80d, 2017-08-06"><metadata
     id="metadata9"><rdf:RDF><cc:Work
         rdf:about=""><dc:format>image/svg+xml</dc:format><dc:type
           rdf:resource="http://purl.org/dc/dcmitype/StillImage" /><dc:title></dc:title></cc:Work></rdf:RDF></metadata><defs
     id="defs7" /><sodipodi:namedview
     pagecolor="#ffffff"
     bordercolor="#666666"
     borderopacity="1"
     objecttolerance="10"
     gridtolerance="10"
     guidetolerance="10"
     inkscape:pageopacity="0"
     inkscape:pageshadow="2"
     inkscape:window-width="917"
     inkscape:window-height="675"
     id="namedview5"
     showgrid="false"
     inkscape:zoom="1"
     inkscape:cx="35.874552"
     inkscape:cy="-32.708503"
     inkscape:window-x="138"
     inkscape:window-y="193"
     inkscape:window-maximized="0"
     inkscape:current-layer="Layer_1" /><path
     style="stroke-width:1.10407674"
     d="M 10 0 C 7.7905004 0 5.5429687 1.8683975 5.5429688 4 L 5.5429688 38 C 5.5429688 40.026245 7.9077241 42 10 42 L 33 42 C 34.414214 42 37 39.414214 37 38 L 37 7 L 30 7 L 30 0 L 10 0 z M 33 0 C 32.94579 1.5695429 33.180046 0.9203646 33 4 L 37 4 L 33 0 z M 10 11 L 32 11 L 32 14 L 10 14 L 10 11 z M 10 19 L 32 19 L 32 22 L 10 22 L 10 19 z M 10 27 L 32 27 L 32 30 L 10 30 L 10 27 z "
     transform="translate(-0.5,0.5)"
     id="path2" /></svg>