<?xml version="1.0" encoding="UTF-8" standalone="no"?>
<!-- Generator: Adobe Illustrator 16.0.4, SVG Export Plug-In . SVG Version: 6.00 Build 0)  -->

<svg
   xmlns:dc="http://purl.org/dc/elements/1.1/"
   xmlns:cc="http://creativecommons.org/ns#"
   xmlns:rdf="http://www.w3.org/1999/02/22-rdf-syntax-ns#"
   xmlns:svg="http://www.w3.org/2000/svg"
   xmlns="http://www.w3.org/2000/svg"
   xmlns:sodipodi="http://sodipodi.sourceforge.net/DTD/sodipodi-0.dtd"
   xmlns:inkscape="http://www.inkscape.org/namespaces/inkscape"
   version="1.1"
   id="Layer_1"
   x="0px"
   y="0px"
   width="42px"
   height="42px"
   viewBox="0 0 42 42"
   xml:space="preserve"
   inkscape:version="0.48.2 r9819"
   sodipodi:docname="plus_pill.svg"><metadata
   id="metadata9"><rdf:RDF><cc:Work
       rdf:about=""><dc:format>image/svg+xml</dc:format><dc:type
         rdf:resource="http://purl.org/dc/dcmitype/StillImage" /><dc:title></dc:title></cc:Work></rdf:RDF></metadata><defs
   id="defs7" /><sodipodi:namedview
   pagecolor="#ffffff"
   bordercolor="#666666"
   borderopacity="1"
   objecttolerance="10"
   gridtolerance="10"
   guidetolerance="10"
   inkscape:pageopacity="0"
   inkscape:pageshadow="2"
   inkscape:window-width="796"
   inkscape:window-height="841"
   id="namedview5"
   showgrid="false"
   inkscape:zoom="1.050338"
   inkscape:cx="30.165484"
   inkscape:cy="26.575434"
   inkscape:window-x="256"
   inkscape:window-y="0"
   inkscape:window-maximized="0"
   inkscape:current-layer="Layer_1" />
<path
   d="M 1.5,21 C 1.5,31.766 10.235,40.5 21,40.5 31.766,40.5 40.5,31.766 40.5,21 40.5,10.234 31.766,1.5 21,1.5 10.235,1.5 1.5,10.234 1.5,21 z m 3.592,0 C 5.092,12.215 12.215,5.091 21,5.091 29.785,5.091 36.909,12.215 36.909,21 36.909,29.785 29.785,36.909 21,36.909 12.215,36.909 5.092,29.785 5.092,21 z"
   id="path3"
   inkscape:connector-curvature="0"
   sodipodi:nodetypes="ssssssssss" />


<rect
   style="fill:#000000;fill-opacity:1;stroke:none"
   id="rect3010"
   width="26"
   height="5"
   x="8"
   y="18.5"
   rx="1.2422974"
   ry="1.4583366" /></svg>