<?xml version="1.0" encoding="UTF-8" standalone="no"?>
<svg
   xmlns:dc="http://purl.org/dc/elements/1.1/"
   xmlns:cc="http://creativecommons.org/ns#"
   xmlns:rdf="http://www.w3.org/1999/02/22-rdf-syntax-ns#"
   xmlns:svg="http://www.w3.org/2000/svg"
   xmlns="http://www.w3.org/2000/svg"
   xmlns:sodipodi="http://sodipodi.sourceforge.net/DTD/sodipodi-0.dtd"
   xmlns:inkscape="http://www.inkscape.org/namespaces/inkscape"
   version="1.1"
   id="Layer_1"
   x="0px"
   y="0px"
   width="40"
   height="40"
   viewBox="0 0 40 40"
   xml:space="preserve"
   inkscape:version="1.0beta1 (32d4812, 2019-09-19)"
   sodipodi:docname="more-pill.svg"><metadata
   id="metadata9">
  <rdf:RDF>
    <cc:Work
   rdf:about="">
      <dc:format>image/svg+xml</dc:format>


      <dc:type
   rdf:resource="http://purl.org/dc/dcmitype/StillImage" />


      <dc:title />


    </cc:Work>


  </rdf:RDF>


</metadata>


<defs
   id="defs7" />


<sodipodi:namedview
   pagecolor="#ffffff"
   bordercolor="#666666"
   borderopacity="1"
   objecttolerance="10"
   gridtolerance="10"
   guidetolerance="10"
   inkscape:pageopacity="0"
   inkscape:pageshadow="2"
   inkscape:window-width="1600"
   inkscape:window-height="1035"
   id="namedview5"
   showgrid="false"
   inkscape:zoom="4"
   inkscape:cx="85.5"
   inkscape:cy="87.125"
   inkscape:window-x="55"
   inkscape:window-y="23"
   inkscape:window-maximized="0"
   inkscape:current-layer="Layer_1"
   inkscape:document-rotation="0" />








<rect
   style="fill:#0000ff;fill-rule:evenodd"
   id="rect330"
   height="4.3568463"
   x="12.655602"
   y="19.917013"
   width="0" />


<g
   style="fill:#ffffff"
   transform="translate(0,-2)"
   id="g163">
  <path
     style="fill:#ffffff;stroke-width:0.717948"
     sodipodi:nodetypes="ssssssssss"
     inkscape:connector-curvature="0"
     id="path3"
     d="M 0,22 C 0,29.729436 6.2712821,36 14,36 21.729436,36 28,29.729436 28,22 28,14.270564 21.729436,8 14,8 6.2712821,8 0,14.270564 0,22 Z m 2.5788718,0 c 0,-6.307179 5.113949,-11.421847 11.4211282,-11.421847 6.307179,0 11.421847,5.114668 11.421847,11.421847 0,6.307179 -5.114668,11.421847 -11.421847,11.421847 C 7.6928208,33.421847 2.5788718,28.307179 2.5788718,22 Z" />
  <g
     style="fill:#ffffff"
     transform="matrix(0.8,0,0,0.8,-0.4,2.8)"
     id="g1181">
  <rect
   style="fill:#ffffff;fill-rule:evenodd;stroke-width:0.999996"
   id="rect332"
   width="4"
   height="4"
   x="8"
   y="24" />


  <rect
   y="24"
   x="16"
   height="4"
   width="4"
   id="rect332-7"
   style="fill:#ffffff;fill-rule:evenodd;stroke-width:0.999996" />


  <rect
   y="24"
   x="24"
   height="4"
   width="4"
   id="rect332-1"
   style="fill:#ffffff;fill-rule:evenodd;stroke-width:0.999996" />


</g>
</g>


<polygon
   id="polygon10"
   points="27.066,1 7,21.068 26.568,40.637 31.502,35.704 16.865,21.068 32,5.933 "
   fill-rule="evenodd"
   transform="matrix(0,-0.20183162,0.20183162,0,31.798168,23.935717)"
   style="fill:#ffffff" />
</svg>
