<?xml version="1.0" encoding="UTF-8" standalone="no"?>
<!-- Generator: Adobe Illustrator 16.0.4, SVG Export Plug-In . SVG Version: 6.00 Build 0)  -->

<svg
   xmlns:dc="http://purl.org/dc/elements/1.1/"
   xmlns:cc="http://creativecommons.org/ns#"
   xmlns:rdf="http://www.w3.org/1999/02/22-rdf-syntax-ns#"
   xmlns:svg="http://www.w3.org/2000/svg"
   xmlns="http://www.w3.org/2000/svg"
   xmlns:sodipodi="http://sodipodi.sourceforge.net/DTD/sodipodi-0.dtd"
   xmlns:inkscape="http://www.inkscape.org/namespaces/inkscape"
   version="1.1"
   id="Layer_1"
   x="0px"
   y="0px"
   width="42px"
   height="42px"
   viewBox="0 0 42 42"
   xml:space="preserve"
   inkscape:version="0.48.2 r9819"
   sodipodi:docname="plus.svg"><metadata
   id="metadata9"><rdf:RDF><cc:Work
       rdf:about=""><dc:format>image/svg+xml</dc:format><dc:type
         rdf:resource="http://purl.org/dc/dcmitype/StillImage" /><dc:title></dc:title></cc:Work></rdf:RDF></metadata><defs
   id="defs7" /><sodipodi:namedview
   pagecolor="#ffffff"
   bordercolor="#666666"
   borderopacity="1"
   objecttolerance="10"
   gridtolerance="10"
   guidetolerance="10"
   inkscape:pageopacity="0"
   inkscape:pageshadow="2"
   inkscape:window-width="811"
   inkscape:window-height="638"
   id="namedview5"
   showgrid="false"
   inkscape:zoom="5.6190476"
   inkscape:cx="21"
   inkscape:cy="19.309322"
   inkscape:window-x="88"
   inkscape:window-y="22"
   inkscape:window-maximized="0"
   inkscape:current-layer="Layer_1" />
<path
   d="M39.5,22.5v-3c0-1.48-0.43-2-2-2h-13v-13c0-1.48-0.49-2-2-2h-3c-1.55,0-2,0.52-2,2v13h-14c-1.48,0-2,0.49-2,2v3  c0,1.55,0.52,2,2,2h14v14c0,1.51,0.48,2,2,2h3c1.48,0,2-0.43,2-2v-14h13C39.01,24.5,39.5,24.02,39.5,22.5z"
   id="path3"
   style="fill-rule:nonzero;fill:#58c0ff;fill-opacity:1" />
</svg>