<?xml version="1.0" encoding="UTF-8" standalone="no"?>
<svg
   xmlns:dc="http://purl.org/dc/elements/1.1/"
   xmlns:cc="http://creativecommons.org/ns#"
   xmlns:rdf="http://www.w3.org/1999/02/22-rdf-syntax-ns#"
   xmlns:svg="http://www.w3.org/2000/svg"
   xmlns="http://www.w3.org/2000/svg"
   xmlns:sodipodi="http://sodipodi.sourceforge.net/DTD/sodipodi-0.dtd"
   xmlns:inkscape="http://www.inkscape.org/namespaces/inkscape"
   version="1.1"
   id="Layer_1"
   x="0px"
   y="0px"
   width="40"
   height="40"
   viewBox="0 0 40 40"
   xml:space="preserve"
   sodipodi:docname="plus-menu.svg"
   inkscape:version="1.0beta1 (32d4812, 2019-09-19)"><metadata
   id="metadata172">
  <rdf:RDF>
    <cc:Work
   rdf:about="">
      <dc:format>image/svg+xml</dc:format>

      <dc:type
   rdf:resource="http://purl.org/dc/dcmitype/StillImage" />

      <dc:title></dc:title>

    </cc:Work>

  </rdf:RDF>

</metadata>

<defs
   id="defs170" />

<sodipodi:namedview
   pagecolor="#ffffff"
   bordercolor="#666666"
   inkscape:document-rotation="0"
   borderopacity="1"
   objecttolerance="10"
   gridtolerance="10"
   guidetolerance="10"
   inkscape:pageopacity="0"
   inkscape:pageshadow="2"
   inkscape:window-width="1230"
   inkscape:window-height="660"
   id="namedview168"
   showgrid="false"
   inkscape:zoom="7.4761905"
   inkscape:cx="1.6719746"
   inkscape:cy="21"
   inkscape:window-x="128"
   inkscape:window-y="23"
   inkscape:window-maximized="0"
   inkscape:current-layer="Layer_1" />


<path
   d="M 28,20.736843 V 18.526316 C 28,17.43579 27.683157,17.052632 26.526316,17.052632 H 16.947368 V 7.4736843 C 16.947368,6.3831579 16.586316,6 15.473684,6 H 13.263157 C 12.121052,6 11.789474,6.3831579 11.789474,7.4736843 V 17.052632 H 1.4736843 C 0.38315786,17.052632 0,17.413684 0,18.526316 v 2.210527 c 0,1.142105 0.38315786,1.473683 1.4736843,1.473683 H 11.789474 v 10.31579 C 11.789474,33.638948 12.143157,34 13.263157,34 h 2.210527 c 1.090526,0 1.473684,-0.316843 1.473684,-1.473684 v -10.31579 h 9.578948 C 27.638948,22.210526 28,21.856843 28,20.736843 Z"
   id="path165"
   inkscape:connector-curvature="0"
   style="fill:#ffffff;stroke-width:0.736841" />


<polygon
   style="fill:#ffffff"
   transform="matrix(0,-0.20183162,0.20183162,0,31.798168,23.935717)"
   fill-rule="evenodd"
   points="26.568,40.637 31.502,35.704 16.865,21.068 32,5.933 27.066,1 7,21.068 "
   id="polygon10" />
</svg>
