<?xml version="1.0" encoding="UTF-8" standalone="no"?>
<!-- Generator: Adobe Illustrator 16.0.4, SVG Export Plug-In . SVG Version: 6.00 Build 0)  -->

<svg
   xmlns:dc="http://purl.org/dc/elements/1.1/"
   xmlns:cc="http://creativecommons.org/ns#"
   xmlns:rdf="http://www.w3.org/1999/02/22-rdf-syntax-ns#"
   xmlns:svg="http://www.w3.org/2000/svg"
   xmlns="http://www.w3.org/2000/svg"
   xmlns:sodipodi="http://sodipodi.sourceforge.net/DTD/sodipodi-0.dtd"
   xmlns:inkscape="http://www.inkscape.org/namespaces/inkscape"
   version="1.1"
   id="Layer_1"
   x="0px"
   y="0px"
   width="42px"
   height="42px"
   viewBox="0 0 42 42"
   xml:space="preserve"
   inkscape:version="0.48.2 r9819"
   sodipodi:docname="info.svg"><metadata
   id="metadata9"><rdf:RDF><cc:Work
       rdf:about=""><dc:format>image/svg+xml</dc:format><dc:type
         rdf:resource="http://purl.org/dc/dcmitype/StillImage" /><dc:title></dc:title></cc:Work></rdf:RDF></metadata><defs
   id="defs7" /><sodipodi:namedview
   pagecolor="#ffffff"
   bordercolor="#666666"
   borderopacity="1"
   objecttolerance="10"
   gridtolerance="10"
   guidetolerance="10"
   inkscape:pageopacity="0"
   inkscape:pageshadow="2"
   inkscape:window-width="788"
   inkscape:window-height="640"
   id="namedview5"
   showgrid="false"
   inkscape:zoom="4.82"
   inkscape:cx="30.161826"
   inkscape:cy="18.461177"
   inkscape:window-x="515"
   inkscape:window-y="22"
   inkscape:window-maximized="0"
   inkscape:current-layer="Layer_1" />
<path
   d="M 1.5,21 C 1.5,31.766 10.235,40.5 21,40.5 31.766,40.5 40.5,31.766 40.5,21 40.5,10.234 31.766,1.5 21,1.5 10.235,1.5 1.5,10.234 1.5,21 z m 3.592,0 C 5.092,12.215 12.215,5.091 21,5.091 29.785,5.091 36.909,12.215 36.909,21 36.909,29.785 29.785,36.909 21,36.909 12.215,36.909 5.092,29.785 5.092,21 z"
   id="path3"
   inkscape:connector-curvature="0"
   sodipodi:nodetypes="ssssssssss" />


<path
   inkscape:connector-curvature="0"
   d="m 33.983402,21.683337 v -2.05001 c 0,-1.011339 -0.293835,-1.366674 -1.366674,-1.366674 H 23.733347 V 9.3832713 c 0,-1.011339 -0.334835,-1.366674 -1.366674,-1.366674 h -2.050011 c -1.059172,0 -1.366674,0.355335 -1.366674,1.366674 V 18.266653 H 9.3832715 c -1.011339,0 -1.366674,0.334835 -1.366674,1.366674 v 2.05001 c 0,1.059173 0.355335,1.366674 1.366674,1.366674 h 9.5667165 v 9.566718 c 0,1.031839 0.328002,1.366674 1.366674,1.366674 h 2.050011 c 1.011339,0 1.366674,-0.293835 1.366674,-1.366674 v -9.566718 h 8.883381 c 1.031839,0 1.366674,-0.328001 1.366674,-1.366674 z"
   id="path3-7" /></svg>