<?xml version="1.0" encoding="UTF-8" standalone="no"?>
<!-- Generator: Adobe Illustrator 16.0.4, SVG Export Plug-In . SVG Version: 6.00 Build 0)  -->

<svg
   xmlns:dc="http://purl.org/dc/elements/1.1/"
   xmlns:cc="http://creativecommons.org/ns#"
   xmlns:rdf="http://www.w3.org/1999/02/22-rdf-syntax-ns#"
   xmlns:svg="http://www.w3.org/2000/svg"
   xmlns="http://www.w3.org/2000/svg"
   xmlns:sodipodi="http://sodipodi.sourceforge.net/DTD/sodipodi-0.dtd"
   xmlns:inkscape="http://www.inkscape.org/namespaces/inkscape"
   version="1.1"
   id="Layer_1"
   x="0px"
   y="0px"
   width="42px"
   height="42px"
   viewBox="-0.5 0.5 42 42"
   xml:space="preserve"
   inkscape:version="0.48.5 r10040"
   sodipodi:docname="undo.svg"><metadata
     id="metadata9"><rdf:RDF><cc:Work
         rdf:about=""><dc:format>image/svg+xml</dc:format><dc:type
           rdf:resource="http://purl.org/dc/dcmitype/StillImage" /><dc:title /></cc:Work></rdf:RDF></metadata><defs
     id="defs7" /><sodipodi:namedview
     pagecolor="#ffffff"
     bordercolor="#666666"
     borderopacity="1"
     objecttolerance="10"
     gridtolerance="10"
     guidetolerance="10"
     inkscape:pageopacity="0"
     inkscape:pageshadow="2"
     inkscape:window-width="1011"
     inkscape:window-height="488"
     id="namedview5"
     showgrid="false"
     inkscape:zoom="5.6190476"
     inkscape:cx="21"
     inkscape:cy="17.618644"
     inkscape:window-x="134"
     inkscape:window-y="14"
     inkscape:window-maximized="0"
     inkscape:current-layer="Layer_1" /><path
     d="M 14.26887,17.5 H 1.4998697 V 4.91 l 4.335,4.385 c 0.34,-0.399 0.651,-0.79 1.021,-1.17 7.4800003,-7.5 19.5720003,-7.5 27.0420003,0 7.479,7.5 7.465,19.661 -0.015,27.161 -7.471,7.5 -19.597,7.5 -27.0780003,0 0,0 -2.505,-2.939 -3.334,-4.51 l 4.129,-1.84 c 0.609,1.068 2.39,3.148 2.39,3.148 5.7190003,5.74 14.9790003,5.74 20.6890003,0 5.72,-5.729 5.719,-15.031 0,-20.761 -5.71,-5.74 -14.971,-5.74 -20.6890003,0 -0.381,0.38 -0.729,0.574 -1.061,0.984 L 14.26887,17.5 z"
     id="path3"
     inkscape:connector-curvature="0"
     style="fill:#ffffff;fill-opacity:1" /></svg>