<?xml version="1.0" standalone="no"?>
<!DOCTYPE svg PUBLIC "-//W3C//DTD SVG 20010904//EN"
 "http://www.w3.org/TR/2001/REC-SVG-20010904/DTD/svg10.dtd">
<svg version="1.0" xmlns="http://www.w3.org/2000/svg"
 width="1024.000000pt" height="1024.000000pt" viewBox="0 0 1024.000000 1024.000000"
 preserveAspectRatio="xMidYMid meet">
<metadata>
Created by potrace 1.11, written by Peter Selinger 2001-2013
</metadata>
<g transform="translate(0.000000,1024.000000) scale(0.100000,-0.100000)"
fill="#000000" stroke="none">
<path d="M0 5120 l0 -5120 5120 0 5120 0 0 5120 0 5120 -5120 0 -5120 0 0
-5120z m8394 4248 c4 -128 6 -469 4 -758 l-3 -525 -200 -6 c-110 -4 -549 -7
-976 -8 l-776 -1 -6 467 c-4 256 -7 601 -7 765 l0 298 979 0 979 0 6 -232z
m-2581 -1718 c70 -5 132 -12 137 -15 11 -7 14 -545 4 -545 -3 0 -58 19 -122
41 -240 85 -430 119 -660 120 -225 0 -362 -24 -489 -86 -161 -79 -233 -210
-233 -425 0 -121 14 -212 65 -435 74 -322 79 -476 20 -663 -60 -189 -248 -405
-430 -493 -227 -110 -616 -138 -926 -68 -123 28 -262 103 -372 199 -105 93
-208 255 -254 398 -31 98 -42 293 -23 409 38 240 169 489 389 745 125 145 201
214 329 299 445 295 926 461 1522 525 142 15 821 11 1043 -6z m912 -96 c639
-73 1113 -318 1422 -734 149 -200 205 -456 234 -1066 7 -147 13 -1095 16
-2642 l4 -2412 -983 2 -983 3 0 930 c0 512 1 2059 3 3438 l2 2508 78 -6 c42
-3 136 -13 207 -21z m-847 -2993 c22 -12 22 -13 20 -209 l-3 -197 -55 -22
c-30 -12 -190 -51 -354 -88 -352 -78 -465 -113 -641 -199 -432 -211 -767 -548
-902 -906 -96 -254 -81 -540 40 -745 171 -291 520 -468 987 -500 183 -13 310
21 647 175 109 50 214 92 233 93 l35 2 3 -244 2 -245 -32 -34 c-90 -94 -473
-379 -660 -491 -108 -65 -235 -120 -403 -176 -541 -180 -1164 -178 -1787 4
-255 75 -390 137 -568 262 -97 68 -271 244 -337 339 -168 247 -263 570 -263
899 0 438 216 915 580 1281 336 337 747 569 1283 724 462 134 1052 234 1677
286 151 12 469 7 498 -9z"/>
</g>
</svg>
