<?xml version="1.0" encoding="UTF-8" standalone="no"?>
<!-- Created with Inkscape (http://www.inkscape.org/) -->

<svg
   width="1280"
   height="1920"
   id="svg2"
   version="1.1"
   inkscape:version="1.2.1 (9c6d41e, 2022-07-14)"
   sodipodi:docname="adapt-it-mobile-android.svg"
   xmlns:inkscape="http://www.inkscape.org/namespaces/inkscape"
   xmlns:sodipodi="http://sodipodi.sourceforge.net/DTD/sodipodi-0.dtd"
   xmlns="http://www.w3.org/2000/svg"
   xmlns:svg="http://www.w3.org/2000/svg"
   xmlns:rdf="http://www.w3.org/1999/02/22-rdf-syntax-ns#"
   xmlns:cc="http://creativecommons.org/ns#"
   xmlns:dc="http://purl.org/dc/elements/1.1/">
  <defs
     id="defs4" />
  <sodipodi:namedview
     id="base"
     pagecolor="#ffffff"
     bordercolor="#666666"
     borderopacity="1.0"
     inkscape:pageopacity="0.0"
     inkscape:pageshadow="2"
     inkscape:zoom="0.36"
     inkscape:cx="645.83333"
     inkscape:cy="1015.2778"
     inkscape:document-units="px"
     inkscape:current-layer="layer1"
     showgrid="false"
     inkscape:window-width="1312"
     inkscape:window-height="889"
     inkscape:window-x="416"
     inkscape:window-y="60"
     inkscape:window-maximized="0"
     inkscape:showpageshadow="2"
     inkscape:pagecheckerboard="0"
     inkscape:deskcolor="#d1d1d1" />
  <metadata
     id="metadata7">
    <rdf:RDF>
      <cc:Work
         rdf:about="">
        <dc:format>image/svg+xml</dc:format>
        <dc:type
           rdf:resource="http://purl.org/dc/dcmitype/StillImage" />
        <dc:title />
      </cc:Work>
    </rdf:RDF>
  </metadata>
  <g
     inkscape:label="Layer 1"
     inkscape:groupmode="layer"
     id="layer1"
     transform="translate(0,867.6378)">
    <rect
       style="fill:#2595cb;fill-opacity:1;stroke:#ffffff;stroke-width:0.63023496;stroke-linecap:butt;stroke-linejoin:round;stroke-miterlimit:4;stroke-opacity:1;stroke-dasharray:none"
       id="rect2989"
       width="1279.3699"
       height="1919.3698"
       x="0.31511748"
       y="-867.32269"
       inkscape:export-filename="/Users/erik/dev/adapt-it-mobile/www/res/screen/ios/Default@2x~universal~anyany.png"
       inkscape:export-xdpi="90"
       inkscape:export-ydpi="90" />
    <g
       id="g4180"
       transform="matrix(0.78141912,0,0,0.7829861,562.78735,-681.48045)"
       style="fill:#ffffff;fill-opacity:1;stroke:none">
      <path
         inkscape:connector-curvature="0"
         sodipodi:nodetypes="ccssssccc"
         id="path2925-4"
         d="m 46.073672,923.2322 c -13.295023,-6.7877 -20.511492,-26.20431 3.374449,-47.78589 18.679853,-13.30142 37.645513,-14.98774 47.466538,-15.16805 7.615751,-0.14101 22.640371,0.49361 22.718311,0.91011 0.25262,1.36752 -0.11688,11.73949 0.0388,13.48982 0.0358,0.3979 -8.88234,-4.30252 -20.077929,-4.11263 -19.003281,0.32236 -19.846121,9.29283 -15.412834,25.79128 3.421475,13.96408 -2.201002,20.3438 -8.082708,25.20213 -6.211336,5.14336 -23.5833,5.32094 -30.024627,1.67323 z"
         style="fill:#ffffff;fill-opacity:1;stroke:none" />
      <path
         inkscape:connector-curvature="0"
         sodipodi:nodetypes="ccccccc"
         id="path2923-5"
         d="m 131.73126,862.55296 c 14.87129,0.82212 26.79009,3.55905 37.7869,13.36117 11.03366,11.32954 11.19491,12.55013 11.19491,84.7126 l 0,73.21737 -24.54213,0 -24.54214,0 0.1025,-171.29114 z"
         style="fill:#ffffff;fill-opacity:1;stroke:none" />
      <path
         inkscape:connector-curvature="0"
         id="path2914-0"
         d="m 131.72035,850.21559 -0.0622,-38.0472 48.85471,0 0.17079,37.7184 c -15.69907,0.71407 -36.70887,0.24999 -48.96343,0.32605 l -3e-5,9.1e-4 z"
         style="fill:#ffffff;fill-opacity:1;stroke:none" />
      <path
         inkscape:connector-curvature="0"
         style="fill:#ffffff;fill-opacity:1;stroke:none"
         d="m 70.310938,942.86811 c 20.162189,-5.05452 47.832702,-6.7469 47.864662,-4.84143 0.0272,1.60733 0.13958,6.66794 0,9.57255 -0.0692,1.4272 -13.77034,3.32692 -19.904891,5.30952 -14.183479,4.58372 -30.521435,17.97327 -30.501308,33.7559 0.02158,17.18665 18.412468,23.23915 30.927669,22.50415 6.74013,-0.3929 19.17268,-8.5153 19.24324,-6.6895 0.10934,2.8302 0.0998,7.0258 0.21039,11.8875 0.0297,1.3098 -14.42858,12.1449 -19.935263,14.7754 -19.636302,9.3804 -41.583832,7.244 -59.185128,0.4936 l -0.596492,-0.2973 c -14.771997,-7.1202 -21.301128,-19.4506 -21.521873,-34.41022 -0.246303,-16.68972 12.80687,-41.56437 48.480213,-50.87586 l 4.919872,-1.18179 z"
         id="path3755-5"
         sodipodi:nodetypes="cssssssssccscc" />
    </g>
    <text
       xml:space="preserve"
       style="font-style:normal;font-variant:normal;font-weight:normal;font-stretch:normal;line-height:0%;font-family:'Source Sans Pro';-inkscape-font-specification:'Source Sans Pro';letter-spacing:0px;word-spacing:0px;fill:#ffffff;fill-opacity:1;stroke:none"
       x="414.12137"
       y="203.52829"
       id="text3918"><tspan
         sodipodi:role="line"
         id="tspan3920"
         x="414.12137"
         y="203.52829"
         style="font-size:72px;line-height:1.25">Adapt It Mobile</tspan></text>
  </g>
</svg>
