<?xml version="1.0" encoding="UTF-8" standalone="no"?>
<!-- Created with Inkscape (http://www.inkscape.org/) -->

<svg
   width="108"
   height="108"
   id="svg3061"
   version="1.1"
   inkscape:version="1.2.1 (9c6d41e, 2022-07-14)"
   sodipodi:docname="aim-adaptive-splash.svg"
   xmlns:inkscape="http://www.inkscape.org/namespaces/inkscape"
   xmlns:sodipodi="http://sodipodi.sourceforge.net/DTD/sodipodi-0.dtd"
   xmlns="http://www.w3.org/2000/svg"
   xmlns:svg="http://www.w3.org/2000/svg"
   xmlns:rdf="http://www.w3.org/1999/02/22-rdf-syntax-ns#"
   xmlns:cc="http://creativecommons.org/ns#"
   xmlns:dc="http://purl.org/dc/elements/1.1/">
  <title
     id="title3118">Adapt It Mobile</title>
  <defs
     id="defs3063" />
  <sodipodi:namedview
     id="base"
     pagecolor="#ffffff"
     bordercolor="#666666"
     borderopacity="1.0"
     inkscape:pageopacity="0.0"
     inkscape:pageshadow="2"
     inkscape:zoom="5.33"
     inkscape:cx="55.065666"
     inkscape:cy="48.499062"
     inkscape:current-layer="layer1"
     showgrid="true"
     inkscape:grid-bbox="true"
     inkscape:document-units="px"
     inkscape:window-width="1248"
     inkscape:window-height="1023"
     inkscape:window-x="323"
     inkscape:window-y="38"
     inkscape:window-maximized="0"
     inkscape:showpageshadow="2"
     inkscape:pagecheckerboard="0"
     inkscape:deskcolor="#d1d1d1" />
  <metadata
     id="metadata3066">
    <rdf:RDF>
      <cc:Work
         rdf:about="">
        <dc:format>image/svg+xml</dc:format>
        <dc:type
           rdf:resource="http://purl.org/dc/dcmitype/StillImage" />
        <dc:title>Adapt It Mobile</dc:title>
        <dc:description>White only</dc:description>
        <dc:creator>
          <cc:Agent>
            <dc:title>Erik Brommers</dc:title>
          </cc:Agent>
        </dc:creator>
        <dc:date>8-8-2014</dc:date>
      </cc:Work>
    </rdf:RDF>
  </metadata>
  <g
     id="layer1"
     inkscape:label="Layer 1"
     inkscape:groupmode="layer">
    <path
       inkscape:connector-curvature="0"
       sodipodi:nodetypes="ccssssccc"
       id="path2925-4"
       d="m 37.299987,53.854835 c -3.327723,-1.702357 -5.133992,-6.572048 0.844618,-11.984715 4.675536,-3.335999 9.422609,-3.758929 11.880796,-3.80415 1.90621,-0.03537 5.666847,0.123797 5.686355,0.228256 0.06323,0.342974 -0.02926,2.944267 0.0097,3.38325 0.009,0.09979 -2.223235,-1.079074 -5.025472,-1.031449 -4.75649,0.08085 -4.967452,2.330645 -3.857807,6.46846 0.85639,3.502196 -0.550907,5.102231 -2.023088,6.320701 -1.554688,1.289957 -5.902861,1.334494 -7.515114,0.419647 z"
       style="fill:#ffffff;fill-opacity:1;stroke:none;stroke-width:0.250549" />
    <path
       inkscape:connector-curvature="0"
       sodipodi:nodetypes="ccccccc"
       id="path2923-5"
       d="m 58.739938,38.636465 c 3.722259,0.206187 6.705514,0.89261 9.457998,3.350985 2.761706,2.841452 2.802067,3.147576 2.802067,21.245944 v 18.362937 h -6.142854 -6.142857 l 0.02566,-42.959866 z"
       style="fill:#ffffff;fill-opacity:1;stroke:none;stroke-width:0.250549" />
    <path
       inkscape:connector-curvature="0"
       style="fill:#ffffff;fill-opacity:1;stroke:none;stroke-width:0.250549"
       d="m 43.366534,58.779527 c 5.046562,-1.267675 11.972445,-1.692125 11.980444,-1.214232 0.0068,0.403118 0.03494,1.672321 0,2.400798 -0.01732,0.357942 -3.446692,0.834393 -4.98216,1.331629 -3.550101,1.149598 -7.639464,4.507702 -7.634427,8.46599 0.0054,4.310416 4.608611,5.828385 7.741144,5.644047 1.687044,-0.09854 4.79889,-2.13564 4.816551,-1.677729 0.02737,0.709815 0.02498,1.762073 0.05266,2.981389 0.0074,0.328497 -3.611449,3.045944 -4.989763,3.705674 C 45.43605,82.7697 39.94262,82.233891 35.537045,80.540888 l -0.149301,-0.07457 C 31.69034,78.680573 30.05611,75.588106 30.000857,71.836228 29.939207,67.650442 33.206396,61.411873 42.135374,59.076549 l 1.231436,-0.296394 z"
       id="path3755-5"
       sodipodi:nodetypes="cssssssssccscc" />
    <path
       inkscape:connector-curvature="0"
       id="path2914-0"
       d="m 58.73757,35.542249 -0.01557,-9.542249 h 12.228253 l 0.04275,9.459786 c -3.929451,0.179088 -9.188169,0.06269 -12.255465,0.08178 l -8e-6,2.28e-4 z"
       style="fill:#ffffff;fill-opacity:1;stroke:none;stroke-width:0.250549" />
  </g>
</svg>
