<?xml version="1.0" ?><!DOCTYPE svg  PUBLIC '-//W3C//DTD SVG 1.1//EN'  'http://www.w3.org/Graphics/SVG/1.1/DTD/svg11.dtd'><svg enable-background="new 0 0 500 500" height="500px" id="Layer_1" version="1.1" viewBox="0 0 500 500" width="500px" xml:space="preserve" xmlns="http://www.w3.org/2000/svg" xmlns:xlink="http://www.w3.org/1999/xlink"><path clip-rule="evenodd" d="M314.099,250H186.901c-12.536,0-22.713,10.175-22.713,22.715  c0,12.537,10.177,22.712,22.713,22.712h127.198c12.537,0,22.716-10.175,22.716-22.712C336.814,260.175,326.636,250,314.099,250z   M314.099,331.771H186.901c-12.536,0-22.713,10.175-22.713,22.711s10.177,22.716,22.713,22.716h127.198  c12.537,0,22.716-10.18,22.716-22.716S326.636,331.771,314.099,331.771z M73.333,431.711c0,20.078,16.264,36.34,36.343,36.34  h281.648c20.078,0,36.345-16.262,36.345-36.34V122.802c0-20.077-16.267-36.341-36.345-36.341h-74.049  c-6.263-31.071-33.797-54.512-66.774-54.512c-32.98,0-60.512,23.441-66.774,54.512h-74.051c-20.079,0-36.343,16.264-36.343,36.341  V431.711z M138.75,131.889h43.607v16.353c0,11.081,8.909,19.989,19.991,19.989h96.301c11.08,0,19.991-8.909,19.991-19.989v-16.353  h43.607c11.081,0,19.992,8.909,19.992,19.991v250.754c0,11.084-8.911,19.99-19.992,19.99H138.75  c-11.083,0-19.989-8.906-19.989-19.99V151.879C118.761,140.797,127.667,131.889,138.75,131.889z M227.787,100.089  c0-12.537,10.177-22.714,22.713-22.714c12.537,0,22.715,10.177,22.715,22.714c0,12.538-10.178,22.713-22.715,22.713  C237.964,122.802,227.787,112.627,227.787,100.089z" fill="#010101" fill-rule="evenodd"/></svg>