<?xml version="1.0" encoding="UTF-8" standalone="no"?>
<svg
   xmlns:dc="http://purl.org/dc/elements/1.1/"
   xmlns:cc="http://creativecommons.org/ns#"
   xmlns:rdf="http://www.w3.org/1999/02/22-rdf-syntax-ns#"
   xmlns:svg="http://www.w3.org/2000/svg"
   xmlns="http://www.w3.org/2000/svg"
   xmlns:xlink="http://www.w3.org/1999/xlink"
   xmlns:sodipodi="http://sodipodi.sourceforge.net/DTD/sodipodi-0.dtd"
   xmlns:inkscape="http://www.inkscape.org/namespaces/inkscape"
   width="48.000000px"
   height="48.000000px"
   id="svg249"
   sodipodi:version="0.32"
   inkscape:version="1.0.1 (c497b03c, 2020-09-10)"
   sodipodi:docname="project-connect.svg"
   inkscape:export-filename="C:\dev\adaptit\res\16x16\text-ai.png"
   inkscape:export-xdpi="30"
   inkscape:export-ydpi="30"
   inkscape:output_extension="org.inkscape.output.svg.inkscape"
   version="1.1">
  <title
     id="title3024">Connect to project</title>
  <defs
     id="defs3">
    <inkscape:perspective
       sodipodi:type="inkscape:persp3d"
       inkscape:vp_x="0 : 24 : 1"
       inkscape:vp_y="0 : 1000 : 0"
       inkscape:vp_z="48 : 24 : 1"
       inkscape:persp3d-origin="24 : 16 : 1"
       id="perspective69" />
    <linearGradient
       id="linearGradient5048">
      <stop
         style="stop-color:black;stop-opacity:0;"
         offset="0"
         id="stop5050" />
      <stop
         id="stop5056"
         offset="0.5"
         style="stop-color:black;stop-opacity:1;" />
      <stop
         style="stop-color:black;stop-opacity:0;"
         offset="1"
         id="stop5052" />
    </linearGradient>
    <linearGradient
       inkscape:collect="always"
       id="linearGradient4542">
      <stop
         style="stop-color:#000000;stop-opacity:1;"
         offset="0"
         id="stop4544" />
      <stop
         style="stop-color:#000000;stop-opacity:0;"
         offset="1"
         id="stop4546" />
    </linearGradient>
    <radialGradient
       inkscape:collect="always"
       xlink:href="#linearGradient4542"
       id="radialGradient4548"
       cx="24.306795"
       cy="42.07798"
       fx="24.306795"
       fy="42.07798"
       r="15.821514"
       gradientTransform="matrix(1.000000,0.000000,0.000000,0.284916,-6.310056e-16,30.08928)"
       gradientUnits="userSpaceOnUse" />
    <linearGradient
       id="linearGradient15662">
      <stop
         style="stop-color:#ffffff;stop-opacity:1.0000000;"
         offset="0.0000000"
         id="stop15664" />
      <stop
         style="stop-color:#f8f8f8;stop-opacity:1.0000000;"
         offset="1.0000000"
         id="stop15666" />
    </linearGradient>
    <radialGradient
       gradientUnits="userSpaceOnUse"
       fy="64.5679"
       fx="20.8921"
       r="5.257"
       cy="64.5679"
       cx="20.8921"
       id="aigrd3">
      <stop
         id="stop15573"
         style="stop-color:#F0F0F0"
         offset="0" />
      <stop
         id="stop15575"
         style="stop-color:#9a9a9a;stop-opacity:1.0000000;"
         offset="1.0000000" />
    </radialGradient>
    <radialGradient
       gradientUnits="userSpaceOnUse"
       fy="114.5684"
       fx="20.8921"
       r="5.256"
       cy="114.5684"
       cx="20.8921"
       id="aigrd2">
      <stop
         id="stop15566"
         style="stop-color:#d2d2d2;stop-opacity:1;"
         offset="0" />
      <stop
         id="stop15568"
         style="stop-color:#9a9a9a;stop-opacity:1.0000000;"
         offset="1.0000000" />
    </radialGradient>
    <linearGradient
       id="linearGradient269">
      <stop
         style="stop-color:#a3a3a3;stop-opacity:1.0000000;"
         offset="0.0000000"
         id="stop270" />
      <stop
         style="stop-color:#4c4c4c;stop-opacity:1.0000000;"
         offset="1.0000000"
         id="stop271" />
    </linearGradient>
    <linearGradient
       id="linearGradient259">
      <stop
         style="stop-color:#fafafa;stop-opacity:1.0000000;"
         offset="0.0000000"
         id="stop260" />
      <stop
         style="stop-color:#bbbbbb;stop-opacity:1.0000000;"
         offset="1.0000000"
         id="stop261" />
    </linearGradient>
    <linearGradient
       id="linearGradient12512">
      <stop
         style="stop-color:#ffffff;stop-opacity:1.0000000;"
         offset="0.0000000"
         id="stop12513" />
      <stop
         style="stop-color:#fff520;stop-opacity:0.89108908;"
         offset="0.50000000"
         id="stop12517" />
      <stop
         style="stop-color:#fff300;stop-opacity:0.0000000;"
         offset="1.0000000"
         id="stop12514" />
    </linearGradient>
  </defs>
  <sodipodi:namedview
     id="base"
     pagecolor="#ffffff"
     bordercolor="#666666"
     borderopacity="0.32941176"
     inkscape:pageopacity="0.0"
     inkscape:pageshadow="2"
     inkscape:zoom="11.083329"
     inkscape:cx="24"
     inkscape:cy="24"
     inkscape:current-layer="layer1"
     showgrid="false"
     inkscape:grid-bbox="true"
     inkscape:document-units="px"
     inkscape:window-width="1330"
     inkscape:window-height="698"
     inkscape:window-x="91"
     inkscape:window-y="61"
     inkscape:showpageshadow="false"
     inkscape:window-maximized="0"
     inkscape:document-rotation="0" />
  <metadata
     id="metadata4">
    <rdf:RDF>
      <cc:Work
         rdf:about="">
        <dc:format>image/svg+xml</dc:format>
        <dc:type
           rdf:resource="http://purl.org/dc/dcmitype/StillImage" />
        <dc:title>Connect to project</dc:title>
        <dc:creator>
          <cc:Agent>
            <dc:title>Erik Brommers</dc:title>
          </cc:Agent>
        </dc:creator>
        <dc:source>http://www.adapt-it.org</dc:source>
        <cc:license
           rdf:resource="http://creativecommons.org/publicdomain/zero/1.0/" />
        <dc:date>14 October 2020</dc:date>
        <dc:description></dc:description>
      </cc:Work>
      <cc:License
         rdf:about="http://creativecommons.org/publicdomain/zero/1.0/">
        <cc:permits
           rdf:resource="http://creativecommons.org/ns#Reproduction" />
        <cc:permits
           rdf:resource="http://creativecommons.org/ns#Distribution" />
        <cc:permits
           rdf:resource="http://creativecommons.org/ns#DerivativeWorks" />
      </cc:License>
    </rdf:RDF>
  </metadata>
  <g
     inkscape:label="Shadow"
     id="layer6"
     inkscape:groupmode="layer" />
  <g
     id="layer1"
     inkscape:label="Base"
     inkscape:groupmode="layer"
     style="display:inline">
    <rect
       ry="1.2360835"
       y="1.9899902"
       x="5.9899902"
       height="44.02002"
       width="36.02002"
       id="rect15391-7-9"
       style="color:#000000;display:block;overflow:visible;visibility:visible;fill:#ff8c00;fill-opacity:1;fill-rule:nonzero;stroke:#ffffff;stroke-width:3.98;stroke-linecap:round;stroke-linejoin:round;stroke-miterlimit:4;stroke-dasharray:none;stroke-dashoffset:0;stroke-opacity:1;marker:none" />
    <g
       id="g1105"
       transform="matrix(0.02857147,0,0,0.02850177,9.7142852,9.7490292)"
       style="fill:#ffffff">
      <g
         transform="matrix(0.1,0,0,-0.1,0,511)"
         id="g1103"
         style="fill:#ffffff">
        <path
           d="M 6628.2,5007.8 C 6228.3,4962.6 5897.5,4848.3 5600,4650.8 5476.3,4567.5 5119.3,4224.8 4307.7,3410.9 3691.3,2789.7 3153.4,2235.2 3115.3,2175.7 2694.1,1547.4 2601.2,657.3 2872.6,-94.7 2986.8,-413.6 3151,-654 3500.9,-1011 c 385.6,-395.1 495,-457 694.9,-383.2 35.7,14.3 218.9,178.5 407,364.1 376,373.7 409.4,433.1 359.4,616.4 -21.4,78.5 -88.1,161.8 -328.4,411.7 -340.3,347.5 -376,414.1 -399.8,728.3 -14.3,195.2 16.7,380.8 90.4,521.2 23.8,45.2 521.2,561.7 1109,1147.1 1190,1185.2 1097.1,1113.8 1458.9,1113.8 445,0 642.6,-92.8 1023.4,-473.6 383.2,-380.8 476,-578.3 476,-1028.1 0,-328.4 -16.7,-361.7 -452.2,-794.9 l -378.4,-376 61.9,-121.4 c 238,-468.9 316.5,-1113.8 207,-1680.2 -14.3,-73.8 71.4,2.4 787.8,714 440.3,437.8 844.9,859.1 897.2,937.6 535.5,775.9 509.3,2049.1 -59.5,2894 -102.3,152.3 -787.8,842.5 -956.7,963.9 -485.5,345.1 -1242.4,533.1 -1870.6,464.1 z"
           id="path1099"
           style="fill:#ffffff" />
        <path
           d="M 5738.1,1583.1 C 5700,1559.3 5523.9,1392.7 5347.8,1216.6 5036,902.4 5028.8,892.9 5017,776.3 c -4.8,-66.6 -2.4,-149.9 4.7,-185.6 9.5,-35.7 138,-188 297.5,-352.2 297.5,-304.6 359.4,-397.4 407,-609.3 38.1,-176.1 21.4,-511.7 -31,-618.8 -23.8,-47.6 -523.6,-566.4 -1130.5,-1168.6 -1061.5,-1059.1 -1090,-1085.3 -1225.7,-1128.1 -204.7,-61.9 -504.6,-42.8 -694.9,42.8 -188,88.1 -804.4,692.6 -913.9,897.2 -142.8,266.5 -183.3,578.3 -107.1,835.4 33.3,116.6 73.8,166.6 411.7,509.3 l 376,380.8 -90.4,202.3 C 2118.1,36.1 2051.5,647.7 2144.3,1164.2 2161,1254.6 2130,1228.5 1394.6,497.8 973.4,79 576,-332.8 509.3,-418.5 364.1,-606.5 252.3,-837.3 166.6,-1120.6 104.7,-1322.9 100,-1363.4 100,-1787 c 0,-416.5 4.8,-471.2 61.9,-685.4 73.8,-266.6 228.5,-609.3 376,-828.2 126.1,-185.6 787.8,-861.5 999.6,-1023.4 813.9,-614 2101.5,-640.2 2915.4,-57.1 78.5,57.1 642.6,604.5 1251.9,1218.5 1244.7,1249.5 1259,1266.1 1428,1777.8 242.7,735.4 85.7,1708.8 -371.3,2296.6 -150,195.2 -630.7,661.6 -709.2,690.2 -102.4,40.6 -235.7,31.1 -314.2,-18.9 z"
           id="path1101"
           style="fill:#ffffff" />
      </g>
    </g>
  </g>
  <g
     inkscape:groupmode="layer"
     id="layer4"
     inkscape:label="new"
     style="display:inline" />
</svg>
