<?xml version="1.0" encoding="UTF-8" standalone="no"?>
<!-- Created with Inkscape (http://www.inkscape.org/) -->

<svg
   xmlns:dc="http://purl.org/dc/elements/1.1/"
   xmlns:cc="http://creativecommons.org/ns#"
   xmlns:rdf="http://www.w3.org/1999/02/22-rdf-syntax-ns#"
   xmlns:svg="http://www.w3.org/2000/svg"
   xmlns="http://www.w3.org/2000/svg"
   xmlns:xlink="http://www.w3.org/1999/xlink"
   xmlns:sodipodi="http://sodipodi.sourceforge.net/DTD/sodipodi-0.dtd"
   xmlns:inkscape="http://www.inkscape.org/namespaces/inkscape"
   inkscape:export-ydpi="90.000000"
   inkscape:export-xdpi="90.000000"
   inkscape:export-filename="/home/steven/edit-find-48.png"
   sodipodi:docname="search.svg"
   inkscape:version="0.48.2 r9819"
   sodipodi:version="0.32"
   id="svg249"
   height="48.000000px"
   width="48.000000px"
   inkscape:output_extension="org.inkscape.output.svg.inkscape"
   version="1.1">
  <defs
     id="defs3">
    <linearGradient
       id="linearGradient4105">
      <stop
         style="stop-color:#4b4d49;stop-opacity:1;"
         offset="0"
         id="stop4107" />
      <stop
         style="stop-color:#696b67;stop-opacity:1;"
         offset="1"
         id="stop4109" />
    </linearGradient>
    <linearGradient
       id="linearGradient4097">
      <stop
         style="stop-color:#cc0000;stop-opacity:1;"
         offset="0"
         id="stop4099" />
      <stop
         style="stop-color:#f40000;stop-opacity:1;"
         offset="1"
         id="stop4101" />
    </linearGradient>
    <inkscape:perspective
       sodipodi:type="inkscape:persp3d"
       inkscape:vp_x="0 : 24 : 1"
       inkscape:vp_y="0 : 1000 : 0"
       inkscape:vp_z="48 : 24 : 1"
       inkscape:persp3d-origin="24 : 16 : 1"
       id="perspective113" />
    <linearGradient
       id="linearGradient5048">
      <stop
         style="stop-color:black;stop-opacity:0;"
         offset="0"
         id="stop5050" />
      <stop
         id="stop5056"
         offset="0.5"
         style="stop-color:black;stop-opacity:1;" />
      <stop
         style="stop-color:black;stop-opacity:0;"
         offset="1"
         id="stop5052" />
    </linearGradient>
    <linearGradient
       inkscape:collect="always"
       id="linearGradient4542">
      <stop
         style="stop-color:#000000;stop-opacity:1;"
         offset="0"
         id="stop4544" />
      <stop
         style="stop-color:#000000;stop-opacity:0;"
         offset="1"
         id="stop4546" />
    </linearGradient>
    <linearGradient
       id="linearGradient15662">
      <stop
         id="stop15664"
         offset="0.0000000"
         style="stop-color:#ffffff;stop-opacity:1.0000000;" />
      <stop
         id="stop15666"
         offset="1.0000000"
         style="stop-color:#f8f8f8;stop-opacity:1.0000000;" />
    </linearGradient>
    <radialGradient
       id="aigrd3"
       cx="20.8921"
       cy="64.5679"
       r="5.257"
       fx="20.8921"
       fy="64.5679"
       gradientUnits="userSpaceOnUse">
      <stop
         offset="0"
         style="stop-color:#F0F0F0"
         id="stop15573" />
      <stop
         offset="1.0000000"
         style="stop-color:#9a9a9a;stop-opacity:1.0000000;"
         id="stop15575" />
    </radialGradient>
    <radialGradient
       id="aigrd2"
       cx="20.8921"
       cy="114.5684"
       r="5.256"
       fx="20.8921"
       fy="114.5684"
       gradientUnits="userSpaceOnUse">
      <stop
         offset="0"
         style="stop-color:#F0F0F0"
         id="stop15566" />
      <stop
         offset="1.0000000"
         style="stop-color:#9a9a9a;stop-opacity:1.0000000;"
         id="stop15568" />
    </radialGradient>
    <linearGradient
       id="linearGradient269">
      <stop
         id="stop270"
         offset="0.0000000"
         style="stop-color:#a3a3a3;stop-opacity:1.0000000;" />
      <stop
         id="stop271"
         offset="1.0000000"
         style="stop-color:#4c4c4c;stop-opacity:1.0000000;" />
    </linearGradient>
    <linearGradient
       id="linearGradient259">
      <stop
         id="stop260"
         offset="0.0000000"
         style="stop-color:#fafafa;stop-opacity:1.0000000;" />
      <stop
         id="stop261"
         offset="1.0000000"
         style="stop-color:#bbbbbb;stop-opacity:1.0000000;" />
    </linearGradient>
    <radialGradient
       inkscape:collect="always"
       xlink:href="#linearGradient4542"
       id="radialGradient4548"
       cx="24.306795"
       cy="42.07798"
       fx="24.306795"
       fy="42.07798"
       r="15.821514"
       gradientTransform="matrix(1.000000,0.000000,0.000000,0.284916,0.000000,30.08928)"
       gradientUnits="userSpaceOnUse" />
    <linearGradient
       id="linearGradient4440">
      <stop
         id="stop4442"
         offset="0"
         style="stop-color:#7d7d7d;stop-opacity:1;" />
      <stop
         style="stop-color:#b1b1b1;stop-opacity:1.0000000;"
         offset="0.50000000"
         id="stop4448" />
      <stop
         id="stop4444"
         offset="1.0000000"
         style="stop-color:#686868;stop-opacity:1.0000000;" />
    </linearGradient>
    <linearGradient
       id="linearGradient4454">
      <stop
         id="stop4456"
         offset="0"
         style="stop-color:#759fcc;stop-opacity:0.20784314;" />
      <stop
         id="stop4458"
         offset="1"
         style="stop-color:#749fcd;stop-opacity:0.6761905;" />
    </linearGradient>
    <linearGradient
       id="linearGradient4467">
      <stop
         id="stop4469"
         offset="0"
         style="stop-color:#ffffff;stop-opacity:1;" />
      <stop
         id="stop4471"
         offset="1.0000000"
         style="stop-color:#ffffff;stop-opacity:0.24761905;" />
    </linearGradient>
    <linearGradient
       id="linearGradient4477"
       inkscape:collect="always">
      <stop
         id="stop4479"
         offset="0"
         style="stop-color:#000000;stop-opacity:1;" />
      <stop
         id="stop4481"
         offset="1"
         style="stop-color:#000000;stop-opacity:0;" />
    </linearGradient>
    <linearGradient
       id="linearGradient2366">
      <stop
         style="stop-color:#ffffff;stop-opacity:1;"
         offset="0"
         id="stop2368" />
      <stop
         id="stop2374"
         offset="0.50000000"
         style="stop-color:#ffffff;stop-opacity:0.21904762;" />
      <stop
         style="stop-color:#ffffff;stop-opacity:1.0000000;"
         offset="1.0000000"
         id="stop2370" />
    </linearGradient>
    <linearGradient
       id="linearGradient2846">
      <stop
         style="stop-color:#282828;stop-opacity:1;"
         offset="0"
         id="stop2848" />
      <stop
         style="stop-color:#484848;stop-opacity:1.0000000;"
         offset="1.0000000"
         id="stop2850" />
    </linearGradient>
    <linearGradient
       inkscape:collect="always"
       id="linearGradient2116">
      <stop
         style="stop-color:#ffffff;stop-opacity:1;"
         offset="0"
         id="stop2118" />
      <stop
         style="stop-color:#ffffff;stop-opacity:0;"
         offset="1"
         id="stop2120" />
    </linearGradient>
    <linearGradient
       id="linearGradient2795">
      <stop
         id="stop2797"
         offset="0.0000000"
         style="stop-color:#000000;stop-opacity:0.068627454;" />
      <stop
         id="stop2799"
         offset="1.0000000"
         style="stop-color:#ffffff;stop-opacity:1.0000000;" />
    </linearGradient>
    <linearGradient
       id="linearGradient2094">
      <stop
         style="stop-color:#d6e3f0;stop-opacity:1.0000000;"
         offset="0.0000000"
         id="stop2096" />
      <stop
         style="stop-color:#95b1cf;stop-opacity:1.0000000;"
         offset="1.0000000"
         id="stop2098" />
    </linearGradient>
    <linearGradient
       id="linearGradient2803">
      <stop
         id="stop2805"
         offset="0"
         style="stop-color:#ffffff;stop-opacity:1;" />
      <stop
         id="stop2807"
         offset="1.0000000"
         style="stop-color:#cbcbcb;stop-opacity:1.0000000;" />
    </linearGradient>
    <linearGradient
       id="linearGradient5048-4">
      <stop
         style="stop-color:black;stop-opacity:0;"
         offset="0"
         id="stop5050-7" />
      <stop
         id="stop5056-1"
         offset="0.5"
         style="stop-color:black;stop-opacity:1;" />
      <stop
         style="stop-color:black;stop-opacity:0;"
         offset="1"
         id="stop5052-3" />
    </linearGradient>
    <linearGradient
       inkscape:collect="always"
       id="linearGradient5060-4">
      <stop
         style="stop-color:black;stop-opacity:1;"
         offset="0"
         id="stop5062-8" />
      <stop
         style="stop-color:black;stop-opacity:0;"
         offset="1"
         id="stop5064-0" />
    </linearGradient>
    <radialGradient
       inkscape:collect="always"
       xlink:href="#linearGradient5060-4"
       id="radialGradient5031-4"
       gradientUnits="userSpaceOnUse"
       gradientTransform="matrix(-2.774389,0,0,1.969706,112.7623,-872.8854)"
       cx="605.71429"
       cy="486.64789"
       fx="605.71429"
       fy="486.64789"
       r="117.14286" />
    <linearGradient
       inkscape:collect="always"
       xlink:href="#linearGradient5048-4"
       id="linearGradient3290"
       gradientUnits="userSpaceOnUse"
       gradientTransform="matrix(2.774389,0,0,1.969706,-1892.179,-872.8854)"
       x1="302.85715"
       y1="366.64789"
       x2="302.85715"
       y2="609.50507" />
    <radialGradient
       inkscape:collect="always"
       xlink:href="#linearGradient5060-4"
       id="radialGradient3292"
       gradientUnits="userSpaceOnUse"
       gradientTransform="matrix(2.774389,0,0,1.969706,-1891.633,-872.8854)"
       cx="605.71429"
       cy="486.64789"
       fx="605.71429"
       fy="486.64789"
       r="117.14286" />
    <radialGradient
       inkscape:collect="always"
       xlink:href="#linearGradient5060-4"
       id="radialGradient3294"
       gradientUnits="userSpaceOnUse"
       gradientTransform="matrix(-2.774389,0,0,1.969706,112.7623,-872.8854)"
       cx="605.71429"
       cy="486.64789"
       fx="605.71429"
       fy="486.64789"
       r="117.14286" />
    <linearGradient
       inkscape:collect="always"
       xlink:href="#linearGradient2116"
       id="linearGradient3305"
       gradientUnits="userSpaceOnUse"
       gradientTransform="matrix(1.0719904,0,0,1.000772,-0.91062279,-3.1314391)"
       x1="73.361984"
       y1="26.652197"
       x2="-2.7582901"
       y2="21.270376" />
    <linearGradient
       inkscape:collect="always"
       xlink:href="#linearGradient2795"
       id="linearGradient3308"
       gradientUnits="userSpaceOnUse"
       gradientTransform="matrix(0.26553358,0,0,3.9305377,-0.1682114,-2.1342051)"
       x1="35.433037"
       y1="4.9530048"
       x2="41.219128"
       y2="4.9530048" />
    <linearGradient
       inkscape:collect="always"
       xlink:href="#linearGradient2803"
       id="linearGradient3314"
       gradientUnits="userSpaceOnUse"
       gradientTransform="matrix(2.3654881,0,0,0.46200961,0.13478505,-3.2027798)"
       x1="10.496115"
       y1="93.338043"
       x2="10.219901"
       y2="84.287079" />
    <linearGradient
       inkscape:collect="always"
       xlink:href="#linearGradient4105"
       id="linearGradient4111"
       x1="4.6397839"
       y1="21.739996"
       x2="42.628819"
       y2="21.739996"
       gradientUnits="userSpaceOnUse" />
    <radialGradient
       inkscape:collect="always"
       xlink:href="#linearGradient4477"
       id="radialGradient4137"
       gradientUnits="userSpaceOnUse"
       gradientTransform="matrix(1,0,0,0.237968,0,28.93278)"
       cx="24.130018"
       cy="37.967922"
       fx="24.130018"
       fy="37.967922"
       r="16.528622" />
    <linearGradient
       inkscape:collect="always"
       xlink:href="#linearGradient2846"
       id="linearGradient4139"
       gradientUnits="userSpaceOnUse"
       gradientTransform="matrix(0.88255334,0,0,0.88255334,-42.402264,7.4575026)"
       x1="27.366341"
       y1="26.580296"
       x2="31.335964"
       y2="30.557772" />
    <linearGradient
       inkscape:collect="always"
       xlink:href="#linearGradient4440"
       id="linearGradient4141"
       gradientUnits="userSpaceOnUse"
       gradientTransform="matrix(1.1778495,0,0,1.1396341,-48.557052,0.87307396)"
       x1="30.656250"
       y1="34.000000"
       x2="33.218750"
       y2="31.062500" />
    <linearGradient
       inkscape:collect="always"
       xlink:href="#linearGradient2366"
       id="linearGradient4143"
       gradientUnits="userSpaceOnUse"
       x1="18.292673"
       y1="13.602121"
       x2="17.500893"
       y2="25.743469" />
    <radialGradient
       inkscape:collect="always"
       xlink:href="#linearGradient4454"
       id="radialGradient4145"
       gradientUnits="userSpaceOnUse"
       cx="18.240929"
       cy="21.817987"
       fx="18.240929"
       fy="21.817987"
       r="8.3085051" />
    <radialGradient
       inkscape:collect="always"
       xlink:href="#linearGradient4467"
       id="radialGradient4147"
       gradientUnits="userSpaceOnUse"
       gradientTransform="matrix(2.2884282,0,0,1.9876019,-64.51883,-9.2589402)"
       cx="15.414371"
       cy="13.078408"
       fx="15.414371"
       fy="13.078408"
       r="6.6562500" />
  </defs>
  <sodipodi:namedview
     inkscape:window-y="0"
     inkscape:window-x="629"
     inkscape:window-height="818"
     inkscape:window-width="1016"
     inkscape:document-units="px"
     inkscape:grid-bbox="true"
     showgrid="true"
     inkscape:current-layer="layer5"
     inkscape:cy="45.480943"
     inkscape:cx="60.974816"
     inkscape:zoom="0.99"
     inkscape:pageshadow="2"
     inkscape:pageopacity="0.0"
     borderopacity="0.25490196"
     bordercolor="#666666"
     pagecolor="#ffffff"
     id="base"
     inkscape:showpageshadow="false"
     inkscape:window-maximized="0" />
  <metadata
     id="metadata4">
    <rdf:RDF>
      <cc:Work
         rdf:about="">
        <dc:format>image/svg+xml</dc:format>
        <dc:type
           rdf:resource="http://purl.org/dc/dcmitype/StillImage" />
        <dc:title></dc:title>
        <dc:subject>
          <rdf:Bag>
            <rdf:li>edit</rdf:li>
            <rdf:li>find</rdf:li>
            <rdf:li>locate</rdf:li>
            <rdf:li>search</rdf:li>
          </rdf:Bag>
        </dc:subject>
        <cc:license
           rdf:resource="http://creativecommons.org/licenses/publicdomain/" />
        <dc:creator>
          <cc:Agent>
            <dc:title>Steven Garrity</dc:title>
          </cc:Agent>
        </dc:creator>
        <dc:source />
        <dc:contributor>
          <cc:Agent>
            <dc:title>Jakub Steiner</dc:title>
          </cc:Agent>
        </dc:contributor>
      </cc:Work>
      <cc:License
         rdf:about="http://creativecommons.org/licenses/publicdomain/">
        <cc:permits
           rdf:resource="http://creativecommons.org/ns#Reproduction" />
        <cc:permits
           rdf:resource="http://creativecommons.org/ns#Distribution" />
        <cc:permits
           rdf:resource="http://creativecommons.org/ns#DerivativeWorks" />
      </cc:License>
    </rdf:RDF>
  </metadata>
  <g
     inkscape:groupmode="layer"
     id="layer6"
     inkscape:label="Shadow">
    <g
       id="g5022"
       transform="matrix(0.02068301,0,0,0.09961198,42.279659,14.954085)">
      <rect
         y="-150.69685"
         x="-1559.2523"
         height="478.35718"
         width="1339.6335"
         id="rect4173"
         style="opacity:0.40206185;color:#000000;fill:url(#linearGradient3290);fill-opacity:1;fill-rule:nonzero;stroke:none;stroke-width:1;marker:none;visibility:visible;display:inline;overflow:visible" />
      <path
         inkscape:connector-curvature="0"
         sodipodi:nodetypes="cccc"
         id="path5058"
         d="m -219.61876,-150.68038 c 0,0 0,478.33079 0,478.33079 142.874166,0.90045 345.40022,-107.16966 345.40014,-239.196175 0,-132.026537 -159.436816,-239.134595 -345.40014,-239.134615 z"
         style="opacity:0.40206185;color:#000000;fill:url(#radialGradient3292);fill-opacity:1;fill-rule:nonzero;stroke:none;stroke-width:1;marker:none;visibility:visible;display:inline;overflow:visible" />
      <path
         inkscape:connector-curvature="0"
         style="opacity:0.40206185;color:#000000;fill:url(#radialGradient3294);fill-opacity:1;fill-rule:nonzero;stroke:none;stroke-width:1;marker:none;visibility:visible;display:inline;overflow:visible"
         d="m -1559.2523,-150.68038 c 0,0 0,478.33079 0,478.33079 -142.8742,0.90045 -345.4002,-107.16966 -345.4002,-239.196175 0,-132.026537 159.4368,-239.134595 345.4002,-239.134615 z"
         id="path5018"
         sodipodi:nodetypes="cccc" />
    </g>
    <path
       inkscape:connector-curvature="0"
       style="color:#000000;fill:#babdb6;fill-opacity:1;fill-rule:nonzero;stroke:#2e3436;stroke-width:1.04540788999999990;stroke-linecap:round;stroke-linejoin:round;stroke-miterlimit:4;stroke-opacity:1;stroke-dashoffset:0;marker:none;visibility:visible;display:inline;overflow:visible"
       d="M 5.7426891,3.4811281 C 5.8375912,1.4791837 6.7960985,0.38221739 8.5805071,0.37674259 L 39.239075,0.28266634 c 0.257781,-7.9033e-4 0.594357,0.20923837 0.620173,0.47036138 l 3.406439,34.45479928 -1.375027,0.0592 0.657813,6.738337 c 0.06378,0.653366 -0.189606,1.211949 -1.12008,1.216356 L 9.323192,43.373765 C 6.6756508,43.386299 3.9545431,41.200661 4.0821749,38.508363 L 5.7426891,3.481125 z"
       id="rect1408"
       sodipodi:nodetypes="csssccsssss" />
    <path
       inkscape:connector-curvature="0"
       id="path2489"
       d="m 41.036365,34.170548 -30.51284,0.130676 c -1.627196,0.185944 -2.9402094,1.459514 -2.9402094,3.136223 0,1.676709 1.3130134,2.950279 2.9402094,3.136223 l 30.51284,0.130676 0,-0.06534 c -1.7308,-0.0817 -3.136224,-1.450659 -3.136224,-3.201561 0,-1.750902 1.405424,-3.119861 3.136224,-3.201561 l 0,-0.06534 z"
       style="color:#000000;fill:url(#linearGradient3314);fill-opacity:1;fill-rule:nonzero;stroke:none;stroke-width:1;marker:none;visibility:visible;display:inline;overflow:visible" />
    <path
       inkscape:connector-curvature="0"
       sodipodi:nodetypes="ccccccssc"
       id="path2784"
       d="m 9.2167653,0.65216154 c -1.7844181,0 -2.7571554,1.05482276 -2.8422024,2.99129326 L 4.6431062,37.255308 c -0.096136,3.218211 1.9098273,5.047974 3.9856172,5.572523 -4.4429831,-1.704716 -3.8549412,-9.400093 1.6987876,-9.367929 l 32.301309,0 L 39.165906,1.1024636 C 39.138977,0.85082039 38.802201,0.65216154 38.545196,0.65216154 l -29.3284307,0 z"
       style="color:#000000;fill:url(#linearGradient4111);fill-opacity:1.0;fill-rule:nonzero;stroke:none;stroke-width:1;marker:none;visibility:visible;display:inline;overflow:visible" />
    <rect
       y="1.8592235"
       x="9.2404547"
       height="30.94908"
       width="2.0908155"
       id="rect2793"
       style="opacity:0.48044691;color:#000000;fill:url(#linearGradient3308);fill-opacity:1;fill-rule:nonzero;stroke:none;stroke-width:1;marker:none;visibility:visible;display:inline;overflow:visible"
       transform="matrix(1,0,-0.03582731,0.999358,0,0)" />
    <path
       inkscape:connector-curvature="0"
       style="color:#000000;fill:none;stroke:url(#linearGradient3305);stroke-width:1.04540789;stroke-linecap:round;stroke-linejoin:miter;stroke-miterlimit:20;stroke-opacity:1;stroke-dasharray:none;stroke-dashoffset:0;marker:none;visibility:visible;display:inline;overflow:visible"
       d="m 9.4128843,1.1970103 c -1.7603616,0 -2.4427808,0.7654079 -2.5266811,2.6701263 L 5.5283188,35.113712 c 0.9757084,-1.679705 2.5503727,-2.281875 5.0727382,-2.281875 l 31.311444,0 -2.95422,-31.1919083 C 38.934812,1.3921106 38.599478,1.1970103 38.345939,1.1970103 l -28.9330547,0 z"
       id="path2104"
       sodipodi:nodetypes="cccscssc" />
  </g>
  <g
     style="display:inline"
     inkscape:groupmode="layer"
     inkscape:label="Base"
     id="layer1" />
  <g
     inkscape:groupmode="layer"
     id="layer5"
     inkscape:label="Magnifying Glass"
     style="display:inline">
    <g
       id="g4180"
       transform="matrix(0.08413377,0,0,0.08430248,9.9181727,-58.192812)"
       style="fill:#ffffff;fill-opacity:1;stroke:none">
      <path
         inkscape:connector-curvature="0"
         sodipodi:nodetypes="ccssssccc"
         id="path2925-4"
         d="m 46.073672,923.2322 c -13.295023,-6.7877 -20.511492,-26.20431 3.374449,-47.78589 18.679853,-13.30142 37.645513,-14.98774 47.466538,-15.16805 7.615751,-0.14101 22.640371,0.49361 22.718311,0.91011 0.25262,1.36752 -0.11688,11.73949 0.0388,13.48982 0.0358,0.3979 -8.88234,-4.30252 -20.077929,-4.11263 -19.003281,0.32236 -19.846121,9.29283 -15.412834,25.79128 3.421475,13.96408 -2.201002,20.3438 -8.082708,25.20213 -6.211336,5.14336 -23.5833,5.32094 -30.024627,1.67323 z"
         style="fill:#ffffff;fill-opacity:1;stroke:none" />
      <path
         inkscape:connector-curvature="0"
         sodipodi:nodetypes="ccccccc"
         id="path2923-5"
         d="m 131.73126,862.55296 c 14.87129,0.82212 26.79009,3.55905 37.7869,13.36117 11.03366,11.32954 11.19491,12.55013 11.19491,84.7126 l 0,73.21737 -24.54213,0 -24.54214,0 0.1025,-171.29114 z"
         style="fill:#ffffff;fill-opacity:1;stroke:none" />
      <path
         inkscape:connector-curvature="0"
         id="path2914-0"
         d="m 131.72035,850.21559 -0.0622,-38.0472 48.85471,0 0.17079,37.7184 c -15.69907,0.71407 -36.70887,0.24999 -48.96343,0.32605 l -3e-5,9.1e-4 z"
         style="fill:#ffffff;fill-opacity:1;stroke:none" />
      <path
         inkscape:connector-curvature="0"
         style="fill:#ffffff;fill-opacity:1;stroke:none"
         d="m 70.310938,942.86811 c 20.162189,-5.05452 47.832702,-6.7469 47.864662,-4.84143 0.0272,1.60733 0.13958,6.66794 0,9.57255 -0.0692,1.4272 -13.77034,3.32692 -19.904891,5.30952 -14.183479,4.58372 -30.521435,17.97327 -30.501308,33.7559 0.02158,17.18665 18.412468,23.23915 30.927669,22.50415 6.74013,-0.3929 19.17268,-8.5153 19.24324,-6.6895 0.10934,2.8302 0.0998,7.0258 0.21039,11.8875 0.0297,1.3098 -14.42858,12.1449 -19.935263,14.7754 -19.636302,9.3804 -41.583832,7.244 -59.185128,0.4936 l -0.596492,-0.2973 c -14.771997,-7.1202 -21.301128,-19.4506 -21.521873,-34.41022 -0.246303,-16.68972 12.80687,-41.56437 48.480213,-50.87586 l 4.919872,-1.18179 z"
         id="path3755-5"
         sodipodi:nodetypes="cssssssssccscc" />
    </g>
    <g
       id="g4127"
       transform="matrix(1.1247899,0,0,1.1247899,48.023084,-5.989915)">
      <path
         sodipodi:type="arc"
         style="opacity:0.17112301;color:#000000;fill:url(#radialGradient4137);fill-opacity:1;fill-rule:evenodd;stroke:none;stroke-width:1;marker:none;visibility:visible;display:inline;overflow:visible"
         id="path4475"
         sodipodi:cx="24.130018"
         sodipodi:cy="37.967922"
         sodipodi:rx="16.528622"
         sodipodi:ry="3.9332814"
         d="m 40.65864,37.967922 c 0,2.172292 -7.400116,3.933282 -16.528622,3.933282 -9.128505,0 -16.5286214,-1.76099 -16.5286214,-3.933282 0,-2.172291 7.4001164,-3.933281 16.5286214,-3.933281 9.128506,0 16.528622,1.76099 16.528622,3.933281 z"
         transform="matrix(1.2765525,0,0,1.3414723,-52.087872,-8.2093019)" />
      <path
         sodipodi:nodetypes="csscccscccscczzzz"
         id="path2844"
         d="m -25.962441,10.231857 c -7.183216,0 -13.013073,5.829857 -13.013073,13.013074 0,7.183216 5.829857,13.013074 13.013073,13.013074 3.070893,0 5.781608,-1.2218 8.008045,-3.003017 -0.181256,0.888626 -0.06887,1.796321 0.667337,2.435781 l 9.6763891,8.408447 c 1.0885555,0.945505 2.7248499,0.821622 3.670354,-0.266934 0.9455042,-1.088557 0.821621,-2.72485 -0.2669344,-3.670354 l -9.6763887,-8.408449 c -0.592659,-0.514774 -1.317545,-0.667183 -2.035378,-0.567236 1.753368,-2.217346 2.96965,-4.897115 2.96965,-7.941312 0,-7.183217 -5.829857,-13.013074 -13.013074,-13.013074 z m -0.06674,1.082173 c 6.74223,0 11.7307,4.226504 11.7307,11.7307 0,7.65625 -5.133539,11.7307 -11.7307,11.7307 -6.445242,0 -11.730699,-4.834708 -11.730699,-11.7307 0,-7.0464 5.140554,-11.730701 11.730699,-11.7307 z"
         style="color:#000000;fill:#dcdcdc;fill-opacity:1;fill-rule:evenodd;stroke:url(#linearGradient4139);stroke-width:2.65279269;stroke-linecap:round;stroke-linejoin:miter;stroke-miterlimit:10;stroke-opacity:1;stroke-dasharray:none;stroke-dashoffset:0;marker:none;visibility:visible;display:inline;overflow:visible"
         inkscape:connector-curvature="0" />
      <path
         style="color:#000000;fill:#dcdcdc;fill-opacity:1;fill-rule:evenodd;stroke:none;stroke-width:1.00000036;marker:none;visibility:visible;display:inline;overflow:visible"
         d="m -25.984208,10.17608 c -7.206436,0 -13.055139,5.848702 -13.055139,13.055139 0,7.206436 5.848703,13.055138 13.055139,13.055138 3.08082,0 5.800297,-1.225749 8.033932,-3.012724 -0.181843,0.891499 -0.0691,1.802128 0.669493,2.443655 l 9.7076684,8.435627 c 1.0920742,0.948561 2.7336578,0.824279 3.6822182,-0.267797 0.9485604,-1.092075 0.8242766,-2.733658 -0.2677976,-3.682219 l -9.707667,-8.435628 c -0.594575,-0.516438 -1.321804,-0.66934 -2.041958,-0.569069 1.759036,-2.224515 2.979249,-4.912945 2.979249,-7.966983 0,-7.206437 -5.848702,-13.055139 -13.055138,-13.055139 z m -0.06695,2.811876 c 5.543413,0 10.042414,4.499002 10.042414,10.042415 0,5.543413 -4.499001,10.042414 -10.042414,10.042414 -5.543412,0 -10.042414,-4.499001 -10.042414,-10.042414 0,-5.543413 4.499002,-10.042415 10.042414,-10.042415 z"
         id="path4430"
         inkscape:connector-curvature="0" />
      <path
         style="color:#000000;fill:url(#linearGradient4141);fill-opacity:1;fill-rule:evenodd;stroke:none;stroke-width:1;marker:none;visibility:visible;display:inline;overflow:visible"
         d="m -7.5352257,44.152032 c -0.4224535,-2.006209 1.2332183,-4.246337 3.163118,-4.225997 0,0 -9.4965983,-8.170776 -9.4965983,-8.170776 -2.598935,-0.05005 -3.768063,2.005704 -3.333239,4.059676 l 9.6667193,8.337097 z"
         id="path4438"
         sodipodi:nodetypes="ccccc"
         inkscape:connector-curvature="0" />
      <path
         sodipodi:type="arc"
         style="color:#000000;fill:none;stroke:url(#linearGradient4143);stroke-width:1.20643401;stroke-linecap:round;stroke-linejoin:miter;stroke-miterlimit:10;stroke-opacity:1;stroke-dasharray:none;stroke-dashoffset:0;marker:none;visibility:visible;display:inline;overflow:visible"
         id="path4450"
         sodipodi:cx="17.500893"
         sodipodi:cy="18.920233"
         sodipodi:rx="11.048544"
         sodipodi:ry="11.048544"
         d="m 28.549437,18.920233 c 0,6.101942 -4.946602,11.048544 -11.048544,11.048544 -6.101943,0 -11.0485443,-4.946602 -11.0485443,-11.048544 0,-6.101943 4.9466013,-11.0485442 11.0485443,-11.0485442 6.101942,0 11.048544,4.9466012 11.048544,11.0485442 z"
         transform="matrix(1.0994346,0,0,1.0994346,-45.425315,2.0059415)" />
      <rect
         style="opacity:0.43315507;color:#000000;fill:none;stroke:#ffffff;stroke-width:1.32643712;stroke-linecap:round;stroke-linejoin:miter;stroke-miterlimit:10;stroke-opacity:1;stroke-dasharray:none;stroke-dashoffset:0;marker:none;visibility:visible;display:inline;overflow:visible"
         id="rect4495"
         width="16.811268"
         height="3.9189589"
         x="8.20613"
         y="33.644402"
         rx="2.8340585"
         ry="2.5041506"
         transform="matrix(0.75298577,0.6580368,-0.648902,0.76087199,0,0)" />
      <path
         sodipodi:type="arc"
         style="color:#000000;fill:url(#radialGradient4145);fill-opacity:1;fill-rule:evenodd;stroke:#3063a3;stroke-width:1.07456946;stroke-linecap:round;stroke-linejoin:miter;stroke-miterlimit:10;stroke-opacity:1;stroke-dashoffset:0;marker:none;visibility:visible"
         id="path4452"
         sodipodi:cx="17.589281"
         sodipodi:cy="18.478292"
         sodipodi:rx="8.3085051"
         sodipodi:ry="8.3085051"
         d="m 25.897786,18.478292 c 0,4.588661 -3.719844,8.308506 -8.308505,8.308506 -4.588661,0 -8.308505,-3.719845 -8.308505,-8.308506 0,-4.58866 3.719844,-8.308505 8.308505,-8.308505 4.588661,0 8.308505,3.719845 8.308505,8.308505 z"
         transform="matrix(1.2343515,0,0,1.2343515,-47.895574,0.1332295)" />
      <path
         style="opacity:0.83422457;color:#000000;fill:url(#radialGradient4147);fill-opacity:1;fill-rule:evenodd;stroke:none;stroke-width:1;marker:none;visibility:visible;display:inline;overflow:visible"
         d="m -26.377818,13.985479 c -4.595976,0 -8.317665,3.72169 -8.317665,8.317666 0,1.327338 0.370943,2.548614 0.924185,3.662511 1.105292,0.407398 2.279421,0.684581 3.525595,0.684581 5.446197,0 9.795708,-4.290654 10.131806,-9.652599 -1.527669,-1.805291 -3.715584,-3.012159 -6.263921,-3.012159 z"
         id="path4462"
         inkscape:connector-curvature="0" />
    </g>
  </g>
</svg>
